<?xml version="1.0" standalone="no"?>
<!DOCTYPE svg PUBLIC "-//W3C//DTD SVG 20010904//EN"
 "http://www.w3.org/TR/2001/REC-SVG-20010904/DTD/svg10.dtd">
<svg version="1.0" xmlns="http://www.w3.org/2000/svg"
 width="815.000000pt" height="815.000000pt" viewBox="0 0 815.000000 815.000000"
 preserveAspectRatio="xMidYMid meet">

<g transform="translate(0.000000,815.000000) scale(0.100000,-0.100000)"
fill="#ffffff" stroke="none">
<path d="M3800 8144 c-155 -14 -343 -39 -460 -60 -1557 -285 -2812 -1453
-3210 -2986 -82 -319 -119 -585 -127 -928 -24 -983 285 -1888 911 -2670 112
-140 394 -427 531 -542 615 -513 1314 -821 2110 -929 196 -27 641 -37 852 -19
782 65 1510 343 2136 817 275 208 571 504 780 780 473 625 752 1355 817 2136
18 211 8 656 -19 852 -108 796 -416 1495 -929 2110 -42 50 -152 167 -246 260
-568 567 -1268 942 -2056 1104 -269 55 -446 73 -760 76 -157 2 -305 1 -330 -1z
m-1000 -1210 c74 -17 225 -75 290 -112 122 -70 220 -168 256 -256 19 -45 20
-46 64 -46 25 0 504 22 1064 50 560 27 1023 47 1027 44 5 -3 9 -22 9 -42 l0
-37 -1482 -273 c-816 -150 -1485 -273 -1489 -272 -3 0 11 46 30 103 30 91 34
114 34 212 1 193 -58 343 -199 511 -41 49 -42 52 -26 67 29 26 107 57 169 66
68 11 163 5 253 -15z m1396 -885 c32 -5 118 -24 189 -41 123 -29 137 -30 265
-23 154 7 171 3 234 -55 143 -132 199 -493 199 -1277 0 -297 2 -333 16 -333 9
0 71 9 138 19 l122 18 50 46 c145 136 337 201 521 178 115 -15 110 -10 87 -89
-15 -52 -20 -98 -21 -202 0 -130 1 -139 36 -238 l36 -103 -23 -9 c-35 -13
-135 -30 -179 -30 -100 1 -254 52 -332 110 l-36 26 -142 -18 c-209 -27 -484
-74 -725 -123 -118 -25 -216 -43 -218 -42 -1 2 2 97 8 213 12 225 1 705 -26
1110 -11 175 -18 223 -39 287 -32 94 -83 180 -103 173 -68 -27 -273 -208 -354
-315 -69 -91 -154 -268 -179 -371 -64 -270 -44 -604 65 -1047 18 -73 29 -133
26 -133 -3 0 -31 7 -61 15 -30 9 -102 18 -160 22 -144 8 -251 -14 -407 -83
-11 -5 -57 102 -82 191 -51 179 -76 415 -67 623 6 129 26 313 41 375 l6 24
-248 -49 -248 -50 -35 -60 c-47 -82 -161 -188 -245 -228 -37 -17 -103 -39
-148 -47 -45 -8 -108 -20 -141 -26 -32 -5 -96 -29 -143 -53 -60 -30 -83 -37
-78 -26 100 252 107 441 29 710 l-6 22 372 0 c450 0 574 14 872 101 l106 31
17 47 c52 138 163 312 276 434 211 228 489 340 735 296z m925 -2307 c29 -30
40 -55 54 -113 22 -94 32 -417 16 -504 -25 -132 -112 -259 -213 -311 -72 -36
-129 -47 -303 -53 l-160 -6 206 -205 c113 -113 222 -230 241 -260 158 -246
224 -554 198 -930 -10 -149 -37 -348 -64 -475 -14 -68 -9 -67 -121 -41 -228
51 -474 -31 -667 -224 l-67 -67 -31 26 -31 26 37 60 c84 136 153 332 179 505
73 478 -133 978 -522 1271 -270 203 -485 469 -614 759 -46 104 -109 279 -109
304 0 7 27 25 61 40 198 86 433 98 640 33 l73 -22 18 -85 c23 -107 65 -194
129 -264 79 -87 150 -112 240 -85 102 31 144 110 144 275 0 100 -1 102 -46
193 -25 50 -40 91 -35 91 6 0 40 -7 76 -16 154 -38 319 -15 445 62 127 77 166
80 226 16z"/>
<path d="M2524 6860 l-32 -10 52 -78 c124 -185 174 -413 132 -609 -7 -35 -10
-63 -7 -63 20 -1 2152 395 2140 398 -8 1 -341 -13 -739 -33 -398 -19 -737 -35
-752 -35 -24 0 -28 4 -28 28 -1 36 -32 104 -72 155 -67 85 -209 168 -378 222
-93 30 -259 43 -316 25z"/>
<path d="M4940 3654 c-105 -62 -183 -85 -313 -91 l-109 -6 7 -26 c40 -157 11
-336 -67 -418 -45 -46 -141 -86 -208 -86 -164 0 -319 158 -384 390 l-21 77
-50 13 c-149 38 -321 35 -460 -8 -95 -30 -92 -26 -60 -116 122 -340 333 -629
615 -846 360 -276 560 -629 600 -1056 18 -192 -15 -430 -84 -614 -14 -37 -23
-67 -21 -67 3 0 27 14 54 30 65 40 156 77 239 96 75 17 235 21 299 6 l41 -10
11 64 c38 214 45 298 46 509 0 301 -29 455 -124 643 -58 116 -111 180 -309
372 -99 96 -189 191 -201 210 -24 41 -27 78 -7 106 13 17 31 19 223 24 l208 5
67 33 c72 35 105 71 144 156 40 88 50 190 36 378 -12 171 -24 231 -50 261 -22
25 -38 21 -122 -29z"/>
</g>
</svg>
