<?xml version="1.0" standalone="no"?>
<!DOCTYPE svg PUBLIC "-//W3C//DTD SVG 20010904//EN"
 "http://www.w3.org/TR/2001/REC-SVG-20010904/DTD/svg10.dtd">
<svg version="1.0" xmlns="http://www.w3.org/2000/svg"
 width="700.000000pt" height="494.000000pt" viewBox="0 0 700.000000 494.000000"
 preserveAspectRatio="xMidYMid meet">

<g transform="translate(0.000000,494.000000) scale(0.100000,-0.100000)"
fill="#000000" stroke="none">
<path d="M4409 3963 c-21 -5 -39 -45 -39 -86 0 -52 -3 -53 -120 -73 -20 -4
-31 4 -58 41 -18 24 -44 48 -57 51 -29 7 -76 -20 -139 -80 -32 -30 -37 -40
-32 -63 4 -16 20 -44 36 -64 l28 -35 -34 -54 -34 -54 -74 3 c-88 3 -87 4 -107
-117 -15 -100 -8 -112 78 -127 l57 -10 14 -64 c14 -64 14 -65 -9 -84 -97 -75
-99 -87 -29 -179 68 -91 87 -95 162 -35 l37 30 54 -36 54 -36 -4 -68 c-4 -51
-2 -71 8 -79 43 -32 196 -46 218 -20 6 8 14 37 18 65 6 57 10 61 62 72 20 4
45 10 57 14 16 5 26 -2 49 -35 31 -44 78 -75 98 -64 7 4 42 29 80 57 78 57 85
82 37 137 -16 19 -29 42 -29 50 -1 8 13 37 30 64 l31 49 62 -7 c92 -9 102 3
123 152 8 56 -22 92 -77 92 -58 0 -71 18 -86 115 -4 26 1 34 41 64 73 54 71
81 -12 179 -52 61 -70 64 -132 22 -24 -17 -48 -30 -52 -30 -5 0 -31 14 -59 31
l-50 31 6 66 c8 84 -4 97 -102 112 -72 10 -79 10 -105 3z m107 -398 c97 -61
139 -130 138 -230 0 -103 -46 -176 -143 -226 -116 -60 -269 -6 -334 116 -28
52 -30 163 -4 215 32 65 89 114 167 144 31 12 146 -1 176 -19z"/>
<path d="M3405 3840 c-140 -13 -313 -68 -434 -137 -122 -71 -274 -207 -347
-313 -44 -64 -120 -208 -134 -255 -6 -22 -15 -49 -20 -60 -5 -11 -10 -29 -12
-40 -2 -15 -23 -26 -88 -47 -47 -16 -94 -31 -105 -35 -45 -15 -153 -78 -205
-119 -86 -68 -183 -193 -205 -265 -4 -13 -12 -29 -17 -35 -14 -18 -48 -208
-48 -269 0 -30 9 -100 20 -155 55 -287 261 -523 521 -596 110 -32 99 -42 99
84 0 106 -1 111 -22 117 -65 19 -169 80 -216 125 -144 140 -214 369 -168 550
58 227 228 359 545 422 l63 13 29 114 c25 97 65 196 124 302 23 42 142 166
204 213 135 102 317 165 509 174 110 5 114 6 135 33 11 16 39 41 61 56 52 35
56 41 56 80 0 29 -3 32 -37 37 -78 11 -221 14 -308 6z"/>
<path d="M5166 3003 c-17 -19 -47 -46 -68 -59 -21 -13 -38 -31 -38 -39 0 -8
23 -43 51 -77 62 -78 101 -158 129 -267 20 -74 22 -104 18 -230 -4 -136 -7
-152 -38 -231 -59 -151 -130 -226 -295 -314 -37 -20 -74 -36 -82 -36 -10 0
-13 -25 -13 -115 0 -128 -1 -126 66 -99 168 67 274 132 361 221 164 167 231
366 220 653 -6 158 -30 264 -87 385 -49 103 -157 246 -184 244 -6 0 -24 -16
-40 -36z"/>
<path d="M3782 2453 c-33 -6 -98 -74 -105 -109 -7 -38 16 -105 43 -124 12 -8
67 -31 123 -50 96 -33 102 -37 105 -65 4 -36 -18 -55 -65 -55 -37 0 -83 37
-83 66 0 15 -9 16 -66 11 -36 -2 -68 -8 -71 -11 -11 -11 17 -83 43 -109 70
-71 260 -76 340 -8 52 43 70 136 37 191 -20 34 -92 75 -148 86 -97 17 -136 49
-103 82 27 27 108 -1 108 -38 0 -6 30 -10 71 -10 l72 0 -6 38 c-7 44 -61 96
-109 106 -33 7 -149 6 -186 -1z"/>
<path d="M2684 2437 c-2 -7 -3 -116 -2 -242 l3 -230 73 -3 72 -3 0 96 c0 76 3
97 15 101 27 11 56 -20 104 -106 l47 -85 82 -3 c51 -2 82 1 82 7 0 21 -73 147
-103 178 -17 18 -29 34 -26 36 2 2 16 8 31 15 84 36 88 182 6 232 -30 18 -50
20 -206 20 -130 0 -174 -3 -178 -13z m260 -88 c75 -35 15 -108 -79 -97 -25 2
-31 8 -33 32 -2 15 -1 39 2 52 5 20 13 24 46 24 21 0 50 -5 64 -11z"/>
<path d="M3204 2437 c-2 -7 -3 -116 -2 -242 l3 -230 205 0 205 0 0 50 0 50
-127 3 c-123 2 -128 3 -133 25 -3 12 -3 31 -1 42 3 11 5 23 5 28 1 4 53 7 116
7 l115 0 0 50 0 50 -115 0 c-125 0 -134 4 -121 55 6 24 8 24 129 27 l122 3 3
48 3 47 -201 0 c-153 0 -202 -3 -206 -13z"/>
<path d="M4130 2390 l0 -60 75 0 75 0 2 -182 3 -183 72 -3 73 -3 2 183 3 183
78 3 77 3 0 59 0 60 -230 0 -230 0 0 -60z"/>
<path d="M2930 1734 c-11 -25 -20 -50 -20 -55 0 -5 -4 -17 -10 -27 -5 -9 -18
-42 -29 -72 -19 -54 -211 -558 -226 -593 -7 -16 1 -17 120 -15 141 3 134 0
157 78 l13 45 143 3 c129 2 143 1 148 -15 3 -10 9 -25 13 -33 5 -9 12 -30 16
-48 l7 -32 129 0 c71 0 129 3 129 8 0 4 -43 122 -96 262 -53 140 -103 273
-110 295 -8 22 -19 48 -24 57 -6 10 -10 23 -10 29 0 6 -14 44 -31 85 l-31 74
-134 0 -135 0 -19 -46z m164 -201 c2 -10 18 -63 35 -118 46 -151 49 -139 -38
-143 -41 -2 -80 -1 -87 2 -9 4 -7 25 13 93 14 48 28 95 33 103 4 9 11 30 15
48 7 35 21 42 29 15z"/>
<path d="M3597 1773 c-4 -3 -7 -186 -7 -405 l0 -398 125 0 124 0 3 148 3 147
130 6 c167 7 222 31 273 118 24 41 27 56 27 136 0 104 -18 150 -77 198 -58 47
-124 57 -374 57 -121 0 -224 -3 -227 -7z m414 -192 c16 -16 29 -38 29 -48 -1
-69 -47 -103 -139 -103 l-61 0 0 90 0 90 71 0 c65 0 73 -2 100 -29z"/>
<path d="M4387 1774 c-4 -4 -7 -187 -7 -406 l0 -399 128 3 127 3 0 400 0 400
-121 3 c-66 1 -123 -1 -127 -4z"/>
</g>
</svg>
